<svg width="24" height="24" viewBox="0 0 42 42" fill="none" xmlns="http://www.w3.org/2000/svg">
<path d="M11.97 18.8382C11.6491 21.2947 11.4579 23.7664 11.3971 26.243C14.7557 27.646 17.9715 29.3689 21 31.388C24.0288 29.3688 27.245 27.6459 30.604 26.243C30.5432 23.7664 30.352 21.2947 30.0311 18.8382M30.0311 18.8382C31.052 18.4952 32.0868 18.1778 33.1321 17.8885C29.3248 15.2194 25.2606 12.937 21 11.0752C16.7393 12.9374 12.6751 15.2202 8.8678 17.8897C9.90996 18.1774 10.944 18.4936 11.9688 18.8382C15.0822 19.8848 18.1031 21.189 21 22.7372C23.8965 21.1891 26.9181 19.8849 30.0311 18.8382ZM15.9252 24.8208C16.1573 24.8208 16.3798 24.7286 16.5439 24.5646C16.708 24.4005 16.8002 24.1779 16.8002 23.9458C16.8002 23.7138 16.708 23.4912 16.5439 23.3271C16.3798 23.163 16.1573 23.0708 15.9252 23.0708C15.6932 23.0708 15.4706 23.163 15.3065 23.3271C15.1424 23.4912 15.0502 23.7138 15.0502 23.9458C15.0502 24.1779 15.1424 24.4005 15.3065 24.5646C15.4706 24.7286 15.6932 24.8208 15.9252 24.8208ZM15.9252 24.8208V20.5333C17.9047 19.3029 19.3661 18.7428 21.4669 17.7333M13.8754 30.646C14.5264 29.9966 15.0426 29.225 15.3943 28.3755C15.7461 27.526 15.9265 26.6153 15.9252 25.6958V23.9458" stroke="#9D7CBF" stroke-width="3" stroke-linecap="round" stroke-linejoin="round"/>
<circle cx="21" cy="21" r="19.5" stroke="#9D7CBF" stroke-width="3"/>
</svg>
