<svg width="24" height="24" viewBox="0 0 42 42" fill="none" xmlns="http://www.w3.org/2000/svg">
<path d="M19.8317 34.7273V7.45454H21.5788V34.7273H19.8317ZM25.2969 15.9134C25.1832 14.9048 24.7145 14.1236 23.8906 13.5696C23.0668 13.0085 22.0298 12.728 20.7798 12.728C19.8849 12.728 19.1108 12.87 18.4574 13.1541C17.804 13.4311 17.2962 13.8146 16.9339 14.3047C16.5788 14.7876 16.4013 15.3381 16.4013 15.956C16.4013 16.4744 16.522 16.9219 16.7635 17.2983C17.0121 17.6747 17.3352 17.9908 17.733 18.2464C18.1378 18.495 18.571 18.7045 19.0327 18.875C19.4943 19.0384 19.9382 19.1733 20.3643 19.2798L22.495 19.8338C23.1911 20.0043 23.9048 20.2351 24.6364 20.5263C25.3679 20.8175 26.0462 21.201 26.6712 21.6768C27.2962 22.1527 27.8004 22.7422 28.1839 23.4453C28.5746 24.1484 28.7699 24.9901 28.7699 25.9702C28.7699 27.206 28.4503 28.3033 27.8111 29.2621C27.179 30.2209 26.2592 30.9773 25.0518 31.5312C23.8516 32.0852 22.3991 32.3622 20.6946 32.3622C19.0611 32.3622 17.6477 32.103 16.4545 31.5845C15.2614 31.0661 14.3274 30.331 13.6527 29.3793C12.978 28.4205 12.6051 27.2841 12.5341 25.9702H15.8366C15.9006 26.7585 16.1563 27.4155 16.6037 27.9411C17.0582 28.4595 17.6371 28.8466 18.3402 29.1023C19.0504 29.3509 19.8281 29.4751 20.6733 29.4751C21.6037 29.4751 22.4311 29.3295 23.1555 29.0384C23.8871 28.7401 24.4624 28.3281 24.8814 27.8026C25.3004 27.2699 25.5099 26.6484 25.5099 25.9382C25.5099 25.2919 25.3253 24.7628 24.956 24.3509C24.5938 23.9389 24.1001 23.598 23.4751 23.3281C22.8572 23.0582 22.1577 22.8203 21.3764 22.6143L18.7983 21.9112C17.0511 21.4354 15.6662 20.7358 14.6435 19.8125C13.6278 18.8892 13.12 17.6676 13.12 16.1477C13.12 14.8906 13.4609 13.7933 14.1428 12.8558C14.8246 11.9183 15.7479 11.1903 16.9126 10.6719C18.0774 10.1463 19.3913 9.88352 20.8544 9.88352C22.3317 9.88352 23.6349 10.1428 24.7642 10.6612C25.9006 11.1797 26.7955 11.8935 27.4489 12.8026C28.1023 13.7045 28.4432 14.7415 28.4716 15.9134H25.2969Z" fill="#8DC259"/>
<path d="M21 35V7" stroke="#8DC259" stroke-width="3"/>
<circle cx="21" cy="21" r="19.5" stroke="#8DC259" stroke-width="3"/>
</svg>
