<svg width="22" height="26" viewBox="0 0 22 26" fill="none" xmlns="http://www.w3.org/2000/svg">
<path d="M14.3212 9.30811L13.9018 20.3847M8.09818 20.3847L7.67879 9.30811M19.7612 5.35745C20.1758 5.42145 20.5879 5.48914 21 5.56175M19.7612 5.35745L18.4667 22.4438C18.4138 23.1394 18.1043 23.7892 17.6 24.2631C17.0957 24.737 16.4338 25.0002 15.7467 25H6.25333C5.56618 25.0002 4.90427 24.737 4.39998 24.2631C3.89568 23.7892 3.58617 23.1394 3.53333 22.4438L2.23879 5.35745M19.7612 5.35745C18.3623 5.14271 16.9561 4.97973 15.5455 4.86885M2.23879 5.35745C1.82424 5.42022 1.41212 5.48791 1 5.56052M2.23879 5.35745C3.63774 5.14271 5.04392 4.97973 6.45455 4.86885M15.5455 4.86885V3.74149C15.5455 2.28922 14.4424 1.07818 13.0121 1.03264C11.671 0.98912 10.329 0.98912 8.98788 1.03264C7.55758 1.07818 6.45455 2.29045 6.45455 3.74149V4.86885M15.5455 4.86885C12.5197 4.63141 9.48034 4.63141 6.45455 4.86885" stroke="#F13B13" stroke-width="1.5" stroke-linecap="round" stroke-linejoin="round"/>
</svg>
